<svg xmlns="http://www.w3.org/2000/svg" version="1.1" xmlns:xlink="http://www.w3.org/1999/xlink" xmlns:svgjs="http://svgjs.dev/svgjs" width="1000" height="151" viewBox="0 0 1000 151"><g transform="matrix(1,0,0,1,-0.6060473835453308,-0.3641024984014791)"><svg viewBox="0 0 396 60" data-background-color="#0a1627" preserveAspectRatio="xMidYMid meet" height="151" width="1000" xmlns="http://www.w3.org/2000/svg" xmlns:xlink="http://www.w3.org/1999/xlink"><defs></defs><g id="tight-bounds" transform="matrix(1,0,0,1,0.2399953105512509,0.14467648943104905)"><svg viewBox="0 0 395.52 59.71064702113793" height="59.71064702113793" width="395.52"><g><svg viewBox="0 0 472.3492078328545 71.30935684572638" height="59.71064702113793" width="395.52"><g><rect width="4.653220978005694" height="51.85665964540883" x="59.99478010614281" y="9.726348600158776" fill="#fe0039" opacity="1" stroke-width="0" stroke="transparent" fill-opacity="1" class="rect-o-0" data-fill-palette-color="primary" rx="1%" id="o-0" data-palette-color="#fe0039"></rect></g><g transform="matrix(1,0,0,1,76.82920783285451,9.855345265943374)"><svg viewBox="0 0 395.52 51.59866631383964" height="51.59866631383964" width="395.52"><g><svg viewBox="0 0 395.52 51.59866631383964" height="51.59866631383964" width="395.52"><g><svg viewBox="0 0 395.52 51.59866631383964" height="51.59866631383964" width="395.52"><g transform="matrix(1,0,0,1,0,0)"><svg width="395.52" viewBox="2.690000057220459 -35.45000076293945 283.2099914550781 36.11000061035156" height="51.59866631383964" data-palette-color="#fe0039"><g class="undefined-text-0" data-fill-palette-color="primary" id="text-0"><path d="M22.02 0.63L22.02 0.63Q21.17 0.63 19.89 0.49 18.6 0.34 17.08-0.05 15.55-0.44 13.89-1.07 12.23-1.71 10.63-2.7 9.03-3.69 7.59-5.04 6.15-6.4 5.07-8.19 3.98-9.99 3.33-12.28 2.69-14.58 2.69-17.43L2.69-17.43Q2.69-19.97 3.38-22.29 4.08-24.61 5.37-26.61 6.67-28.61 8.51-30.25 10.35-31.88 12.62-33.03 14.89-34.18 17.55-34.81 20.21-35.45 23.14-35.45L23.14-35.45Q25.68-35.45 28.06-34.83 30.44-34.2 32.52-33.07 34.59-31.93 36.32-30.35 38.04-28.76 39.28-26.81 40.53-24.85 41.21-22.6 41.89-20.34 41.89-17.9L41.89-17.9Q41.89-15.6 41.24-13.34 40.58-11.08 39.33-9.02 38.09-6.96 36.32-5.2 34.55-3.44 32.35-2.14 30.15-0.83 27.54-0.1 24.93 0.63 22.02 0.63ZM9.86-18.33L9.86-18.33Q9.86-16.36 10.27-14.38 10.67-12.4 11.45-10.57 12.23-8.74 13.38-7.14 14.53-5.54 15.99-4.36 17.46-3.17 19.25-2.5 21.04-1.83 23.14-1.83L23.14-1.83Q26.1-1.83 28.27-3.09 30.44-4.35 31.87-6.42 33.3-8.5 34-11.19 34.69-13.89 34.69-16.77L34.69-16.77Q34.69-18.87 34.29-20.89 33.89-22.9 33.12-24.72 32.35-26.54 31.21-28.06 30.08-29.59 28.6-30.71 27.12-31.84 25.33-32.46 23.54-33.08 21.44-33.08L21.44-33.08Q19.56-33.08 17.97-32.5 16.38-31.91 15.1-30.9 13.82-29.88 12.84-28.48 11.87-27.08 11.21-25.44 10.55-23.8 10.21-21.98 9.86-20.17 9.86-18.33ZM63.82 0L47.02 0Q46.82 0 46.82-0.24L46.82-0.24 46.82-1.27Q46.82-1.29 46.85-1.38 46.87-1.46 47.02-1.46L47.02-1.46Q47.85-1.46 48.57-1.71 49.29-1.95 49.83-2.37 50.36-2.78 50.68-3.37 51-3.96 51-4.64L51-4.64 51-29.44Q51-30.66 50.75-31.36 50.51-32.06 50.03-32.41 49.56-32.76 48.84-32.85 48.12-32.93 47.17-32.93L47.17-32.93 46.07-32.93Q45.8-32.93 45.68-33.24 45.55-33.54 45.55-33.76L45.55-33.76Q45.55-33.89 45.6-34.13 45.65-34.38 45.87-34.42L45.87-34.42Q45.9-34.42 46.03-34.42 46.16-34.42 46.51-34.44 46.85-34.45 47.42-34.46 48-34.47 48.92-34.5L48.92-34.5Q50.27-34.52 51.79-34.57 53.32-34.62 54.88-34.67 56.44-34.72 57.97-34.75 59.49-34.79 60.84-34.79L60.84-34.79 64.28-34.79Q66.23-34.79 68.09-34.13 69.94-33.47 71.38-32.19 72.82-30.91 73.7-29 74.58-27.1 74.58-24.61L74.58-24.61Q74.58-23.05 74.12-21.62 73.65-20.19 72.86-18.99 72.07-17.8 71.03-16.83 69.99-15.87 68.86-15.21 67.72-14.55 66.55-14.21L66.55-14.21Q65.52-13.94 64.62-13.94L64.62-13.94Q64.48-13.94 64.35-13.94L64.35-13.94 58.52-14.23Q58.49-14.23 58.32-14.23 58.15-14.23 58.08-14.18L58.08-14.18Q58.01-14.14 57.98-14.09 57.96-14.04 57.96-13.89L57.96-13.89 57.96-4.71Q57.96-3.76 58.48-3.14 59.01-2.51 59.85-2.15 60.69-1.78 61.74-1.62 62.79-1.46 63.82-1.46L63.82-1.46Q63.96-1.46 63.99-1.39 64.01-1.32 64.01-1.27L64.01-1.27 64.01-0.2Q64.01-0.15 63.97-0.07 63.94 0 63.82 0L63.82 0ZM57.96-17.72L58.01-16.99Q58.03-16.8 58.12-16.64 58.2-16.48 58.47-16.46L58.47-16.46Q58.57-16.46 58.82-16.43 59.08-16.41 59.42-16.38 59.76-16.36 60.17-16.33 60.57-16.31 60.96-16.31L60.96-16.31Q62.6-16.31 63.83-16.97 65.06-17.63 65.88-18.81 66.7-20 67.1-21.62 67.5-23.24 67.5-25.2L67.5-25.2Q67.5-29.22 65.89-31.1 64.28-32.98 61.15-32.98L61.15-32.98Q60.81-32.98 60.52-32.97 60.23-32.96 59.93-32.95 59.64-32.93 59.31-32.92 58.98-32.91 58.57-32.89L58.57-32.89Q58.42-32.89 58.19-32.82 57.96-32.76 57.96-32.5L57.96-32.5 57.96-17.72ZM76.46-0.2L76.46-1.15Q76.46-1.34 76.66-1.34L76.66-1.34Q77.12-1.37 77.74-1.48 78.36-1.59 79.01-1.94 79.66-2.29 80.27-2.99 80.88-3.69 81.29-4.91L81.29-4.91 91.11-33.37Q91.11-33.35 91.12-33.4 91.13-33.45 91.13-33.5L91.13-33.5Q91.13-33.67 91-33.92 90.86-34.18 90.86-34.3L90.86-34.3Q90.86-34.42 90.96-34.42L90.96-34.42 98.04-34.42Q98.09-34.4 98.18-34.38 98.26-34.35 98.31-34.23L98.31-34.23 108.64-5.25Q108.88-4.57 109.1-4.08 109.32-3.59 109.63-3.21 109.93-2.83 110.4-2.53 110.86-2.22 111.59-1.9L111.59-1.9Q111.93-1.73 112.52-1.54 113.11-1.34 113.64-1.34L113.64-1.34Q113.76-1.34 113.8-1.27 113.84-1.2 113.84-1.12L113.84-1.12 113.84-0.2Q113.84-0.15 113.8-0.07 113.76 0 113.64 0L113.64 0 96.5 0Q96.38 0 96.35-0.07 96.31-0.15 96.31-0.2L96.31-0.2 96.31-1.15Q96.31-1.2 96.35-1.27 96.38-1.34 96.5-1.34L96.5-1.34Q96.6-1.34 96.7-1.35 96.8-1.37 96.85-1.37L96.85-1.37Q97.11-1.39 97.61-1.42 98.12-1.44 98.7-1.5 99.29-1.56 99.89-1.7 100.48-1.83 100.97-2.09 101.46-2.34 101.78-2.76 102.09-3.17 102.09-3.78L102.09-3.78Q102.09-3.93 102.05-4.13L102.05-4.13 98.85-12.94Q98.82-12.99 98.76-13.16 98.7-13.33 98.57-13.51 98.43-13.7 98.22-13.84 98.02-13.99 97.72-13.99L97.72-13.99 88.91-13.99Q88.59-13.99 88.37-13.84 88.15-13.7 88.01-13.53 87.86-13.35 87.78-13.18 87.69-13.01 87.69-12.99L87.69-12.99Q86.91-10.69 86.37-9.12 85.83-7.54 85.48-6.52 85.13-5.49 84.93-4.93 84.74-4.37 84.65-4.11 84.57-3.86 84.55-3.8 84.54-3.74 84.54-3.74L84.54-3.74Q84.54-3.66 84.57-3.58 84.59-3.49 84.61-3.42L84.61-3.42Q84.81-2.81 85.33-2.4 85.86-2 86.54-1.77 87.23-1.54 87.95-1.44 88.67-1.34 89.23-1.34L89.23-1.34 89.86-1.34Q89.99-1.34 90.02-1.27 90.06-1.2 90.06-1.15L90.06-1.15 90.06-0.2Q90.06-0.15 90.02-0.07 89.99 0 89.86 0L89.86 0 76.66 0Q76.46 0 76.46-0.2L76.46-0.2ZM92.33-26.39L89.25-17.5Q89.2-17.38 89.18-17.26 89.16-17.14 89.16-17.02L89.16-17.02Q89.16-16.87 89.23-16.78 89.3-16.7 89.52-16.7L89.52-16.7 96.85-16.7Q97.11-16.7 97.2-16.81 97.29-16.92 97.29-17.07L97.29-17.07Q97.29-17.19 97.26-17.29 97.24-17.38 97.19-17.5L97.19-17.5 93.94-26.42Q93.82-26.76 93.57-26.92 93.33-27.08 93.13-27.08L93.13-27.08Q92.94-27.08 92.7-26.89 92.45-26.71 92.33-26.39L92.33-26.39Z" fill="#fe0039" data-fill-palette-color="primary"></path><path d="M114.47-0.2L114.47-1.27Q114.47-1.32 114.51-1.39 114.55-1.46 114.67-1.46L114.67-1.46Q116.28-1.46 117.17-1.84 118.06-2.22 118.49-2.89 118.92-3.56 119.02-4.49 119.11-5.42 119.16-6.49L119.16-6.49Q119.31-9.64 119.52-12.61 119.72-15.58 119.92-18.44 120.11-21.31 120.26-24.12 120.41-26.93 120.41-29.76L120.41-29.76 120.41-30.66Q120.41-31.23 120.04-31.65 119.67-32.08 119.17-32.37 118.67-32.67 118.16-32.81 117.65-32.96 117.36-32.96L117.36-32.96Q117.16-32.96 117.16-33.15L117.16-33.15 117.16-34.23Q117.16-34.28 117.18-34.35 117.21-34.42 117.36-34.42L117.36-34.42 126-34.42Q126.27-34.38 126.44-34.24 126.61-34.11 126.76-33.89L126.76-33.89 137.38-10.21Q137.55-9.79 137.81-9.79L137.81-9.79Q138.08-9.79 138.21-9.91 138.33-10.03 138.4-10.23L138.4-10.23 148.9-33.45Q149.14-33.91 149.39-34.17 149.63-34.42 149.88-34.42L149.88-34.42 158.47-34.42Q158.62-34.42 158.64-34.35 158.66-34.28 158.66-34.23L158.66-34.23 158.66-33.15Q158.66-33.11 158.63-33.03 158.59-32.96 158.47-32.96L158.47-32.96Q158.42-32.96 157.9-32.86 157.37-32.76 156.75-32.48 156.13-32.2 155.61-31.68 155.1-31.15 155.1-30.3L155.1-30.3 156.52-4.3Q156.54-3.59 156.89-3.1 157.25-2.61 157.76-2.29 158.27-1.98 158.85-1.82 159.42-1.66 159.92-1.57 160.42-1.49 160.78-1.48 161.13-1.46 161.15-1.46L161.15-1.46Q161.28-1.46 161.31-1.39 161.35-1.32 161.35-1.27L161.35-1.27 161.35-0.2Q161.35-0.15 161.31-0.07 161.28 0 161.15 0L161.15 0 145.09 0Q144.89 0 144.89-0.2L144.89-0.2 144.89-1.27Q144.89-1.46 145.09-1.46L145.09-1.46Q145.68-1.46 146.42-1.53 147.17-1.59 147.85-1.81 148.53-2.03 149-2.45 149.46-2.88 149.46-3.59L149.46-3.59 148.34-23.54Q148.31-23.78 148.22-23.78L148.22-23.78Q148.12-23.78 148.02-23.56L148.02-23.56 137.33-0.42Q137.2-0.15 137-0.07 136.79 0 136.28 0L136.28 0Q135.4 0 134.97-0.05 134.54-0.1 134.4-0.44L134.4-0.44 124-23.36Q123.92-23.54 123.89-23.62 123.85-23.71 123.75-23.71L123.75-23.71Q123.58-23.71 123.58-23.39L123.58-23.39Q123.58-22.66 123.51-21.24 123.43-19.82 123.31-18.05 123.19-16.28 123.07-14.31 122.95-12.33 122.82-10.47 122.7-8.62 122.63-7.02 122.56-5.42 122.56-4.39L122.56-4.39 122.56-3.39Q122.65-2.93 123.04-2.56 123.43-2.2 124.02-1.95 124.61-1.71 125.31-1.59 126.02-1.46 126.8-1.46L126.8-1.46Q126.93-1.46 126.94-1.39 126.95-1.32 126.95-1.27L126.95-1.27 126.95-0.2Q126.95 0 126.8 0L126.8 0 114.67 0Q114.47 0 114.47-0.2L114.47-0.2ZM167.52-30.15L167.52-30.15Q167.52-30.86 167.19-31.41 166.86-31.96 166.3-32.32 165.74-32.69 165.01-32.89 164.28-33.08 163.45-33.08L163.45-33.08Q163.25-33.08 163.25-33.28L163.25-33.28 163.25-34.23Q163.25-34.42 163.42-34.42L163.42-34.42 178.85-34.42Q178.97-34.42 179.01-34.35 179.05-34.28 179.05-34.23L179.05-34.23 179.05-33.28Q179.05-33.23 179.01-33.15 178.97-33.08 178.85-33.08L178.85-33.08Q178.12-33.08 177.35-32.98 176.58-32.89 175.93-32.54 175.29-32.2 174.88-31.56 174.48-30.91 174.48-29.81L174.48-29.81 174.48-12.7Q174.48-7.81 176.97-5.14 179.46-2.47 184.42-2.47L184.42-2.47Q186.47-2.47 188.35-3.04 190.23-3.61 191.67-4.81 193.11-6.01 193.96-7.86 194.82-9.72 194.82-12.28L194.82-12.28 194.82-27.44Q194.82-28.27 194.76-29.15 194.7-30.03 194.36-30.81 194.01-31.59 193.28-32.17 192.55-32.74 191.21-32.96L191.21-32.96Q190.6-33.06 190.19-33.07 189.79-33.08 189.67-33.08L189.67-33.08Q189.47-33.08 189.47-33.28L189.47-33.28 189.47-34.23Q189.47-34.42 189.67-34.42L189.67-34.42 202.41-34.42Q202.53-34.42 202.57-34.35 202.61-34.28 202.61-34.23L202.61-34.23 202.61-33.28Q202.61-33.23 202.56-33.15 202.51-33.08 202.41-33.08L202.41-33.08Q201.53-33.08 200.86-32.95 200.19-32.81 199.85-32.67L199.85-32.67Q199.43-32.5 199.09-32.14 198.75-31.79 198.52-31.38 198.29-30.98 198.16-30.55 198.04-30.13 198.04-29.81L198.04-29.81 198.04-14.18Q198.04-10.74 197.14-8 196.23-5.25 194.42-3.33 192.6-1.42 189.84-0.38 187.08 0.66 183.39 0.66L183.39 0.66Q181.64 0.66 179.77 0.39 177.9 0.12 176.13-0.46 174.36-1.05 172.8-1.98 171.23-2.91 170.06-4.2 168.89-5.49 168.21-7.18 167.52-8.86 167.52-10.99L167.52-10.99 167.52-30.15ZM208.07-0.9L206.51-0.66Q206.19-0.66 206.12-1.17L206.12-1.17Q205.85-3.47 205.71-4.74 205.56-6.01 205.5-6.64 205.44-7.28 205.42-7.46 205.41-7.64 205.41-7.71L205.41-7.71Q205.41-7.98 205.66-8.3 205.9-8.62 206.24-8.62L206.24-8.62Q206.49-8.62 206.77-8.33 207.05-8.03 207.3-7.64 207.56-7.25 207.74-6.86 207.93-6.47 207.98-6.3L207.98-6.3Q208.61-4.96 209.36-4.04 210.1-3.13 211.05-2.58 212-2.03 213.2-1.78 214.4-1.54 215.93-1.54L215.93-1.54Q218.55-1.54 220-2.78 221.45-4.03 221.45-6.79L221.45-6.79Q221.45-8.37 220.76-9.67 220.06-10.96 218.94-12.07 217.81-13.18 216.37-14.18 214.93-15.19 213.42-16.21 211.91-17.24 210.47-18.35 209.03-19.46 207.9-20.8 206.78-22.14 206.08-23.78 205.39-25.42 205.39-27.47L205.39-27.47Q205.39-28.71 205.84-29.79 206.29-30.86 207.05-31.74 207.8-32.62 208.82-33.31 209.83-34.01 210.98-34.48 212.13-34.96 213.31-35.21 214.49-35.45 215.62-35.45L215.62-35.45Q216.52-35.45 217.44-35.29 218.35-35.13 219.24-34.91 220.13-34.69 221.04-34.44 221.94-34.18 222.82-33.96L222.82-33.96 224.43-34.11Q224.65-34.11 224.71-33.92 224.77-33.74 224.8-33.59L224.8-33.59 225.5-27.86Q225.5-27.73 225.19-27.69 224.87-27.64 224.7-27.64L224.7-27.64Q224.55-27.64 224.26-27.67 223.97-27.71 223.92-27.76L223.92-27.76Q223.84-27.83 223.73-28.06 223.63-28.3 223.5-28.58 223.38-28.86 223.25-29.15 223.11-29.44 222.97-29.66L222.97-29.66Q221.79-31.47 219.96-32.36 218.13-33.25 215.93-33.25L215.93-33.25Q214.98-33.25 214.15-33.03 213.32-32.81 212.71-32.34 212.1-31.86 211.75-31.13 211.39-30.4 211.39-29.37L211.39-29.37Q211.39-27.88 212.09-26.67 212.79-25.46 213.92-24.4 215.06-23.34 216.51-22.34 217.96-21.34 219.46-20.3 220.96-19.26 222.42-18.09 223.87-16.92 225-15.5 226.14-14.09 226.84-12.35 227.53-10.62 227.53-8.45L227.53-8.45Q227.53-7.01 227.03-5.76 226.53-4.52 225.68-3.5 224.82-2.49 223.67-1.71 222.53-0.93 221.22-0.4 219.91 0.12 218.53 0.39 217.16 0.66 215.84 0.66L215.84 0.66Q214.18 0.66 212.94 0.42 211.71 0.17 210.82-0.13 209.93-0.44 209.32-0.68 208.71-0.93 208.29-0.93L208.29-0.93Q208.15-0.93 208.07-0.9L208.07-0.9ZM242.84-4.64L242.84-4.64Q242.84-3.81 243.09-3.25 243.35-2.69 243.83-2.34 244.3-2 245-1.86 245.69-1.71 246.55-1.71L246.55-1.71Q246.74-1.71 246.74-1.51L246.74-1.51 246.74-0.2Q246.74-0.12 246.72-0.06 246.69 0 246.55 0L246.55 0 232.12 0Q232 0 231.96-0.07 231.92-0.15 231.92-0.2L231.92-0.2 231.92-1.51Q231.92-1.56 231.96-1.64 232-1.71 232.12-1.71L232.12-1.71Q232.97-1.71 233.67-1.82 234.36-1.93 234.85-2.29 235.34-2.66 235.61-3.34 235.88-4.03 235.88-5.2L235.88-5.2 235.88-29.79Q235.88-30.62 235.62-31.18 235.37-31.74 234.89-32.08 234.41-32.42 233.72-32.57 233.02-32.71 232.17-32.71L232.17-32.71Q231.97-32.71 231.97-32.91L231.97-32.91 231.97-34.23Q231.97-34.42 232.17-34.42L232.17-34.42 246.6-34.42Q246.72-34.42 246.75-34.35 246.79-34.28 246.79-34.23L246.79-34.23 246.79-32.91Q246.79-32.86 246.75-32.79 246.72-32.71 246.6-32.71L246.6-32.71Q245.74-32.71 245.05-32.6 244.35-32.5 243.86-32.13 243.37-31.76 243.1-31.08 242.84-30.4 242.84-29.22L242.84-29.22 242.84-4.64ZM251.55-16.99L251.55-16.99Q251.55-19.73 252.23-22.16 252.92-24.58 254.16-26.64 255.41-28.69 257.16-30.32 258.92-31.96 261.06-33.09 263.2-34.23 265.64-34.84 268.08-35.45 270.74-35.45L270.74-35.45Q272.99-35.45 275.07-35.05 277.16-34.64 279.38-34.11L279.38-34.11Q279.75-34.01 280.15-33.86 280.55-33.72 280.91-33.58 281.26-33.45 281.55-33.35 281.85-33.25 281.99-33.25L281.99-33.25Q282.04-33.25 282.32-33.35 282.6-33.45 282.73-33.45L282.73-33.45 283.85-33.45Q284.14-33.45 284.14-33.03L284.14-33.03 284.14-25.07Q284.14-24.93 284.03-24.88 283.92-24.83 283.56-24.83L283.56-24.83Q283.48-24.83 283.18-24.84 282.87-24.85 282.8-24.98L282.8-24.98Q282.75-25.05 282.62-25.27 282.48-25.49 282.32-25.72 282.16-25.95 282.03-26.16 281.9-26.37 281.87-26.44L281.87-26.44Q280.94-28.27 279.85-29.53 278.75-30.79 277.42-31.57 276.09-32.35 274.52-32.7 272.96-33.06 271.13-33.06L271.13-33.06Q268.81-33.06 267.02-32.52 265.22-31.98 263.88-31.01 262.54-30.03 261.62-28.66 260.71-27.29 260.13-25.67 259.56-24.05 259.3-22.2 259.04-20.36 259.04-18.41L259.04-18.41Q259.04-16.33 259.34-14.29 259.63-12.26 260.29-10.41 260.95-8.57 261.99-6.99 263.02-5.42 264.49-4.26 265.95-3.1 267.91-2.44 269.86-1.78 272.33-1.78L272.33-1.78Q274.4-1.78 276.2-2.4 277.99-3.03 279.48-4.09 280.97-5.15 282.13-6.53 283.29-7.91 284.12-9.42L284.12-9.42Q284.17-9.55 284.23-9.56 284.29-9.57 284.41-9.57L284.41-9.57 285.66-9.57Q285.73-9.57 285.81-9.51 285.9-9.45 285.9-9.25L285.9-9.25Q285.9-9.18 285.79-8.87 285.68-8.57 285.56-8.35L285.56-8.35 282.19-0.93Q282.14-0.85 282.04-0.81 281.95-0.76 281.87-0.76L281.87-0.76Q281.29-0.76 281.05-0.85 280.82-0.95 280.58-0.95L280.58-0.95Q279.85-0.95 278.64-0.7 277.43-0.44 276.02-0.15 274.62 0.15 273.19 0.4 271.76 0.66 270.64 0.66L270.64 0.66Q268.08 0.66 265.66 0.1 263.24-0.46 261.12-1.53 259-2.59 257.24-4.14 255.48-5.69 254.21-7.64 252.94-9.59 252.25-11.95 251.55-14.31 251.55-16.99Z" fill="#c1c1c1" data-fill-palette-color="secondary"></path></g></svg></g></svg></g></svg></g></svg></g><g><svg viewBox="0 0 47.81357335743681 71.30935684572638" height="71.30935684572638" width="47.81357335743681"><g><svg xmlns="http://www.w3.org/2000/svg" xmlns:xlink="http://www.w3.org/1999/xlink" version="1.1" x="0" y="0" viewBox="13.040000915527344 0 67.05091094970703 100" enable-background="new 0 0 100 100" xml:space="preserve" height="71.30935684572638" width="47.81357335743681" class="icon-icon-0" data-fill-palette-color="accent" id="icon-0"><g fill="#c1c1c1" data-fill-palette-color="accent"><path fill-rule="evenodd" clip-rule="evenodd" d="M55 31.077V87.12C52.566 94.536 44.258 100 34.38 100c-11.787 0-21.34-7.779-21.34-17.375S22.593 65.25 34.38 65.25c3.801 0 7.368 0.812 10.456 2.226V0h1.536c1.104 6.981 5.84 11.392 11.379 15.077 6.535 4.35 12.525 9.223 16.934 15.824 7.529 11.27 7.184 23.544-0.975 33.866-0.301 0.383-0.651 0.727-1.349 1.493C76.621 50.318 69.795 36.931 55 31.077z" fill="#c1c1c1" data-fill-palette-color="accent"></path></g></svg></g></svg></g></svg></g></svg><rect width="395.52" height="59.71064702113793" fill="none" stroke="none" visibility="hidden"></rect></g></svg></g></svg>